<svg width="28" height="26" viewBox="0 0 28 26" fill="none" xmlns="http://www.w3.org/2000/svg">
<g id="Group 3">
<path id="Union" fill-rule="evenodd" clip-rule="evenodd" d="M5.63874 8.83853C3.58891 9.98728 2.88659 12.5315 4.07006 14.5212C4.73184 15.6338 5.75877 16.3847 6.86003 16.6487C5.34281 17.9289 4.92147 20.1127 5.96427 21.8659C7.14774 23.8556 9.76884 24.5373 11.8187 23.3885L22.0228 17.67C24.0726 16.5213 24.7749 13.977 23.5914 11.9874C22.9385 10.8896 21.848 10.19 20.6572 9.97627C22.2911 8.71542 22.7723 6.45023 21.6972 4.64267C20.5138 2.65298 17.8926 1.97126 15.8428 3.12001L5.63874 8.83853ZM17.7397 10.4632L19.5928 9.42467C21.1302 8.56311 21.6569 6.65495 20.7693 5.16267C19.8817 3.6704 17.9159 3.15911 16.3785 4.02068L6.17445 9.73919C4.63708 10.6008 4.11034 12.5089 4.99794 14.0012C5.88554 15.4935 7.53297 16.1832 8.9248 15.4032L9.46051 16.3039L8.06866 17.0839C6.5313 17.9454 6.00455 19.8536 6.89215 21.3459C7.77975 22.8381 9.74558 23.3494 11.283 22.4879L21.487 16.7693C23.0244 15.9078 23.5511 13.9996 22.6635 12.5074C21.7759 11.0151 19.8101 10.5038 18.2728 11.3654L17.737 10.4647C17.7379 10.4642 17.7388 10.4637 17.7397 10.4632Z" fill="#C4C4C4"/>
<path id="Polygon 1" d="M11.7781 11.635C11.7781 11.2573 12.1937 11.0243 12.5307 11.2132L16.8163 13.6149C17.1571 13.8059 17.1619 14.284 16.8249 14.4728L12.5392 16.8746C12.2022 17.0634 11.7781 16.8204 11.7781 16.4385L11.7781 11.635Z" fill="#C4C4C4"/>
</g>
</svg>
